<?xml version="1.0" standalone="no"?>
<!DOCTYPE svg PUBLIC "-//W3C//DTD SVG 20010904//EN"
 "http://www.w3.org/TR/2001/REC-SVG-20010904/DTD/svg10.dtd">
<svg version="1.0" xmlns="http://www.w3.org/2000/svg"
 width="348.000000pt" height="348.000000pt" viewBox="0 0 348.000000 348.000000"
 preserveAspectRatio="xMidYMid meet">
<metadata>
Created by potrace 1.14, written by Peter Selinger 2001-2017
</metadata>
<g transform="translate(0.000000,348.000000) scale(0.100000,-0.100000)"
fill="#000000" stroke="none">
<path d="M1494 3463 c-22 -22 -55 -96 -61 -137 -5 -35 -44 -135 -96 -246 -63
-136 -117 -270 -154 -378 -32 -95 -36 -118 -36 -207 0 -115 26 -226 74 -315
35 -66 64 -98 164 -180 89 -74 100 -100 59 -136 -16 -14 -155 -88 -309 -164
-154 -77 -289 -147 -300 -157 -35 -32 -111 -126 -147 -183 -129 -204 -191
-379 -174 -493 6 -40 11 -46 49 -65 107 -52 219 -72 382 -67 239 7 483 85 608
195 74 66 189 229 265 377 12 23 33 61 47 83 31 49 19 55 155 -77 108 -105
196 -177 262 -215 56 -33 165 -64 238 -67 30 -2 69 -4 85 -5 42 -4 264 16 334
29 9 1 39 6 66 9 28 4 61 8 75 11 14 3 41 7 60 10 54 9 112 26 143 41 52 28
38 66 -97 267 -48 70 -105 165 -128 210 -62 125 -104 186 -177 257 -134 132
-336 199 -686 225 -44 4 -84 10 -88 14 -4 4 9 56 28 115 63 186 75 308 41 391
-37 87 -192 301 -401 555 -61 74 -134 169 -163 211 -77 115 -87 123 -118 92z
m115 -538 c107 -154 172 -324 172 -451 0 -130 -56 -265 -156 -372 l-53 -57
-69 71 c-71 74 -120 153 -153 249 -15 43 -18 76 -16 143 5 108 34 198 124 384
77 158 67 155 151 33z m308 -1042 c18 -18 35 -44 39 -59 7 -27 -15 -113 -43
-167 -12 -25 -18 -28 -46 -21 -18 3 -44 12 -58 20 -39 20 -96 80 -103 110 -10
38 22 92 83 142 60 48 54 50 128 -25z m-416 -265 c9 -208 -25 -350 -117 -488
-74 -111 -134 -165 -223 -200 -73 -28 -118 -35 -231 -34 -83 1 -234 24 -248
38 -7 8 71 166 128 260 122 202 217 276 500 384 189 72 190 72 191 40z m1140
-48 c38 -20 120 -90 180 -155 54 -58 132 -156 128 -159 -2 -2 -29 -6 -59 -9
-30 -4 -77 -11 -105 -16 -68 -13 -207 -32 -263 -35 -90 -6 -201 52 -332 173
-53 50 -62 63 -50 71 8 5 19 10 23 10 5 0 56 23 113 51 177 87 287 107 365 69z"/>
<path d="M3208 3055 c-2 -1 -32 -5 -68 -9 -68 -6 -109 -12 -150 -22 -14 -3
-36 -8 -50 -10 -14 -3 -43 -10 -65 -16 -22 -5 -47 -12 -55 -13 -45 -10 -210
-69 -273 -98 -78 -37 -161 -111 -182 -162 -7 -17 -11 -63 -9 -107 3 -78 -17
-173 -65 -312 -12 -33 -21 -65 -21 -72 0 -13 62 -29 155 -39 180 -21 225 -28
343 -51 l84 -17 73 37 c82 42 185 135 264 238 182 240 304 487 280 571 -9 33
-47 63 -92 73 -25 6 -164 13 -169 9z m-218 -303 c-16 -50 -33 -109 -36 -129
-9 -58 -36 -113 -89 -178 -87 -107 -75 -100 -183 -102 -67 -1 -113 4 -149 15
l-51 17 28 92 c58 195 100 250 232 302 56 22 270 82 276 77 1 -2 -11 -44 -28
-94z"/>
<path d="M712 2448 c-103 -11 -192 -46 -427 -166 -60 -31 -132 -66 -160 -79
-97 -46 -100 -47 -103 -78 -2 -24 7 -40 46 -81 34 -36 58 -73 76 -121 33 -87
68 -143 132 -210 74 -78 236 -193 271 -193 4 0 39 29 76 64 38 35 96 77 130
94 34 17 142 69 240 116 191 93 257 130 257 147 0 6 -38 48 -85 94 -63 62 -92
99 -114 147 -29 61 -81 226 -81 253 0 26 -102 31 -258 13z m2 -271 c35 -69 36
-138 6 -220 -23 -60 -101 -176 -149 -220 -29 -27 -32 -27 -59 -13 -49 25 -127
113 -160 179 -32 64 -72 162 -72 176 0 13 189 107 270 135 110 38 129 34 164
-37z"/>
<path d="M1892 1164 c-16 -20 -62 -94 -102 -166 -63 -112 -86 -143 -169 -225
l-95 -95 28 -54 c71 -135 177 -274 254 -330 29 -21 58 -43 65 -49 7 -5 41 -30
77 -54 36 -25 88 -63 115 -86 115 -96 185 -124 219 -87 10 11 26 58 36 104 11
46 42 153 70 238 28 85 59 196 69 247 20 97 21 225 3 260 -6 11 -30 25 -54 33
-95 30 -188 84 -306 179 -68 55 -137 104 -153 110 -26 9 -31 7 -57 -25z m166
-346 c118 -65 137 -159 76 -363 -8 -27 -18 -70 -21 -95 -3 -25 -7 -46 -8 -48
-2 -2 -34 16 -71 39 -152 92 -254 190 -276 261 -15 52 3 87 95 185 l68 72 50
-15 c28 -9 67 -24 87 -36z"/>
</g>
</svg>
